<svg xmlns="http://www.w3.org/2000/svg" width="56.371" height="59.192" viewBox="0 0 56.371 59.192">
  <g id="Group_225" data-name="Group 225" transform="translate(-311.657 745.794) rotate(-90)">
    <path id="Path_20" data-name="Path 20" d="M705.544,367.97a30.122,30.122,0,0,1-10.171-6.513,29.305,29.305,0,0,1-6.721-10.025,28.768,28.768,0,0,1,1-23.546,29.638,29.638,0,0,1,18.113-15.022,30.374,30.374,0,0,1,11.946-1.01,29.807,29.807,0,0,1,11.383,3.721,29.429,29.429,0,0,1,8.981,7.906,28.473,28.473,0,0,1,5.721,16.813,34.151,34.151,0,0,1-.449,5.971,27.214,27.214,0,0,1-4.4,11.122,23.586,23.586,0,0,1-9.075,7.842,25.174,25.174,0,0,1-5.7,2.005,21.579,21.579,0,0,1-6.03.561,28.29,28.29,0,0,1-5.938-.96,27.286,27.286,0,0,1-5.6-2.149,18.214,18.214,0,0,1-4.854-3.573,9.357,9.357,0,0,1-1.681-2.557,6.1,6.1,0,0,1-.488-3.017.247.247,0,0,1,.493.033,5.488,5.488,0,0,0,.661,2.671,8.56,8.56,0,0,0,1.717,2.19,17.1,17.1,0,0,0,4.719,3.11,29.028,29.028,0,0,0,11.039,2.685,23.338,23.338,0,0,0,19.618-9.623,25.961,25.961,0,0,0,4.366-10.536,29.873,29.873,0,0,0,.5-5.76,27.3,27.3,0,0,0-5.441-16.208,28.4,28.4,0,0,0-8.665-7.631,28.983,28.983,0,0,0-22.484-2.462,28.273,28.273,0,0,0-17.193,14.506,27.424,27.424,0,0,0-.795,22.329,27.71,27.71,0,0,0,6.407,9.435,28.441,28.441,0,0,0,9.635,6.091.856.856,0,1,1-.6,1.6Z" fill="#040405"/>
    <path id="Path_21" data-name="Path 21" d="M726.569,358.032c-.167.409-1.432-.026-2.093-.2-2.876-.774-5.739-1.6-8.6-2.428-1.485-.433-2.957-.913-4.442-1.346a2.011,2.011,0,0,1-.072.277,14.8,14.8,0,0,0,2.816,1.123,1.834,1.834,0,0,1,1.24.855c1.051.292,2.1.585,3.153.869q3.391.919,6.8,1.766a3.1,3.1,0,0,0,1.322,0,1.2,1.2,0,0,0,1-1.662,6.27,6.27,0,0,0-.88-1.792c-.839-1.138-1.725-2.247-2.669-3.3a164.913,164.913,0,0,0-14.632-14.122c-1.152-1-2.278-2.036-3.406-3.067-.164-.151-.818-.978.867-.382,1.438.509,2.887,1,4.308,1.555,4.678,1.84,9.321,3.779,14.032,5.532,2.293.854,4.707,1.391,7.075,2.04a4.121,4.121,0,0,0,1.331.1c1.285-.082,1.8-.959,1.2-2.082a6.15,6.15,0,0,0-1.071-1.42c-.871-.865-1.769-1.71-2.709-2.5a149.6,149.6,0,0,0-18.6-13.159c-.342-.208-1.728-1.135-.921-.848,8.463,3.015,16.9,6.084,25.1,9.792a5.455,5.455,0,0,0,.209,1.033,1.09,1.09,0,0,0,1.219.585.837.837,0,0,0,.88-.707c.078-.532-.266-.819-.682-1.039-.131-.07-.271-.123-.408-.182q-12.073-5.309-24.415-9.952c-4.181-1.566-8.475-2.815-12.494-4.834a63.988,63.988,0,0,0-6.858-2.687,6.124,6.124,0,0,0-1.972-.286,1.076,1.076,0,0,0-1.076.826,1.307,1.307,0,0,0,.524,1.481c.823.428,1.47,1.264,2.578,1.08a2.872,2.872,0,0,1,1.084.236c2.016.535,4.046,1.026,6.04,1.633a19.917,19.917,0,0,1,3.514,1.4,158.236,158.236,0,0,1,25.219,16.705,38.682,38.682,0,0,1,2.93,2.588c.682.675.631,1.054.587,1.129-.287.222-1.248-.084-1.854-.209-.948-.194-1.889-.434-2.817-.705-4.693-1.375-9.181-3.3-13.714-5.1-2.491-.991-4.975-2.01-7.508-2.886-2.18-.754-3.366-.587-3.51-.1a1.538,1.538,0,0,0,.175,1.136,9.2,9.2,0,0,0,1.388,1.6c1.387,1.3,2.8,2.568,4.221,3.833,4.592,4.1,9.051,8.328,13.225,12.853.983,1.066,1.9,2.2,2.8,3.333a1.9,1.9,0,0,1,.549,1.643" fill="#040405"/>
    <path id="Path_22" data-name="Path 22" d="M707.737,354.081c1.005.248,2.007.543,3.008.848,2.009.6,3.989,1.3,6.092,1.779a.472.472,0,0,0,.217-.918l-.014,0c-1.992-.494-3.97-1.238-5.981-1.867-1.006-.322-2.019-.635-3.053-.9a17.222,17.222,0,0,0-3.217-.581,4.644,4.644,0,0,0-1.8.2,2.076,2.076,0,0,0-.916.625,1.883,1.883,0,0,0-.167.237l-.11.2a4.332,4.332,0,0,0-.2.4,4.987,4.987,0,0,0-.108,3.535,8.926,8.926,0,0,0,1.685,2.943,11.288,11.288,0,0,0,2.476,2.235,28.01,28.01,0,0,0,10.188,4.391c.019-.492.027-.984.036-1.476a26.709,26.709,0,0,1-9.494-4.009,10,10,0,0,1-2.233-1.961,7.685,7.685,0,0,1-1.489-2.5,3.77,3.77,0,0,1,.031-2.7,3.253,3.253,0,0,1,.147-.31l.082-.153a.633.633,0,0,1,.066-.1.913.913,0,0,1,.41-.275,3.573,3.573,0,0,1,1.344-.146,16.061,16.061,0,0,1,3,.505" fill="#040405"/>
  </g>
</svg>
