<svg xmlns="http://www.w3.org/2000/svg" width="99.092" height="47.735" viewBox="0 0 99.092 47.735">
  <g id="Group_65" data-name="Group 65" transform="translate(-307.559 -242.824)">
    <path id="Path_9" data-name="Path 9" d="M495.371,308.559c.439.3,2.115-1.26,2.231-1.787a.956.956,0,0,0-.99-1.183C495.863,305.678,495.207,307.771,495.371,308.559Z" transform="translate(-102.339 -34.205)"/>
    <path id="Path_10" data-name="Path 10" d="M400.214,288.443c.26-.608-.325-1.2-.99-1.183-.749.09-1.443,1.722-1.241,2.97C398.422,290.53,399.842,289.311,400.214,288.443Z" transform="translate(-49.259 -24.216)"/>
    <g id="Group_7" data-name="Group 7" transform="translate(307.559 242.824)">
      <path id="Path_11" data-name="Path 11" d="M385.324,275.049a4.169,4.169,0,0,1,.661-1.337c1.266-1.82,2.665-3.555,3.831-5.436A107.106,107.106,0,0,0,399.029,249a23.435,23.435,0,0,0,.942-3.675,3.811,3.811,0,0,0-.1-1.682,1.015,1.015,0,0,0-1.652-.592,4.234,4.234,0,0,0-1.137,1.128,48.405,48.405,0,0,0-2.534,4.128,126.764,126.764,0,0,0-9.521,23.126c-1.068,3.108-7.033,8.7-11.095,10.107-.855.283-1.368,0-1.55-.877a6.759,6.759,0,0,1-.123-1.791,48.9,48.9,0,0,1,1.706-7.7,1.781,1.781,0,0,1,.47-.671c.585-.576,1.257-1.074,1.785-1.7a70.39,70.39,0,0,0,8.534-12.333,46.633,46.633,0,0,0,3.166-7.116,14.694,14.694,0,0,0,.576-2.492,1.466,1.466,0,0,0-.678-1.73,1.513,1.513,0,0,0-1.731.445,8.677,8.677,0,0,0-1.32,1.361c-1.135,1.563-2.291,3.119-3.309,4.759A83.635,83.635,0,0,0,374,267.286c-.075.207-.344,1-.619,1.83h0c-.552.186-1.811,2.268-6.589,2.175a5.4,5.4,0,0,1-3.278-1.069c-.411-.314-.723-1.787-1.747-2.3a1.872,1.872,0,0,0-1.971-.065c-.511.094-2.252,1.316-3.939,4.883,0-.012.009-.026.013-.037-2.693,2.585-5.368,4.857-7.313,4.7a2.226,2.226,0,0,1-2.231-2.518,3.639,3.639,0,0,1,.065-.566,6.374,6.374,0,0,1,1.343-3.2.763.763,0,0,0-.6-1.33.663.663,0,0,0-.582.238c-.26.274-.464.6-.715.887-.343.389-4.107,4.816-5.536,4.522-.55-.113.223-4.085.223-4.085.762-3.008,1.634-5.988,2.444-8.984q.782-2.886,1.5-5.79a2.651,2.651,0,0,0,0-1.125,1.018,1.018,0,0,0-1.414-.852,5.317,5.317,0,0,0-1.525.748c-.968.714-1.912,1.467-2.807,2.271a140.431,140.431,0,0,0-12.016,12.448c-.853.981-1.732,1.939-2.609,2.9-.128.14-.638.175-.324-.737.423-1.228.848-2.457,1.323-3.665,1.565-3.981,3.215-7.93,4.706-11.939.727-1.952,1.184-4,1.735-6.019a3.5,3.5,0,0,0,.081-1.133c-.069-1.094-.816-1.535-1.771-1.022a5.217,5.217,0,0,0-1.208.911c-.737.742-1.456,1.506-2.127,2.305a127.2,127.2,0,0,0-11.2,15.825c-.177.29-.356.581-.534.871l-.187-.087c2.53-7.213,5.175-14.381,8.33-21.358a4.684,4.684,0,0,0,.88-.177.928.928,0,0,0,.5-1.038.713.713,0,0,0-.6-.749c-.453-.067-.7.226-.885.58-.059.111-.1.231-.155.347q-4.516,10.272-8.467,20.772a105.63,105.63,0,0,1-4.113,10.63,54.356,54.356,0,0,0-2.286,5.836,5.219,5.219,0,0,0-.244,1.677.914.914,0,0,0,.7.915,1.112,1.112,0,0,0,1.26-.445c.364-.7,1.075-1.25.919-2.193a2.435,2.435,0,0,1,.2-.922c.455-1.715.872-3.442,1.389-5.14a16.91,16.91,0,0,1,1.194-2.989,134.609,134.609,0,0,1,14.212-21.456c.7-.862,1.453-1.676,2.2-2.494.219-.239.843-.772.96-.5a3.472,3.472,0,0,1-.177,1.578c-.166.806-.369,1.606-.6,2.4-1.169,3.992-2.806,7.811-4.341,11.667q-1.265,3.179-2.456,6.388a11.09,11.09,0,0,0-.54,1.884c-.073.385.04.98.459,1.1a1.3,1.3,0,0,0,.966-.15,7.789,7.789,0,0,0,1.358-1.18c1.105-1.18,2.185-2.385,3.261-3.592,3.485-3.907,7.086-7.7,10.935-11.252.907-.836,1.869-1.617,2.836-2.385.354-.282,1-.794,1.4-.467.2.16-.022,1.218-.173,1.781-.659,2.446-1.358,4.882-2.066,7.315a58.126,58.126,0,0,0-2.09,7.894,13.234,13.234,0,0,0-.086,3.024c.083.958.835,1.207,1.747.934,1.2-.358,2.98-1.878,4.4-3.295a7.481,7.481,0,0,0-.071,2.485,2.894,2.894,0,0,0,1.888,2.328c2.536,1.035,5.462-1.469,7.712-3.133-.127.4-.773,4.882,1.457,5.525,2.467.712,4.856-2.769,5.748-4.525a20.543,20.543,0,0,0,1.459-4.467c4.136,2.125,7.171.318,9.062-.113a61.956,61.956,0,0,0-1.513,6.7,9.627,9.627,0,0,0,.072,3.015,2.218,2.218,0,0,0,3.082,1.779c4.044-1.347,7.878-5.55,8.807-6.316.232-.191.443-.407.663-.611.043.031.087.061.128.093-.22,1.145-.7,2.847-.9,4a29.89,29.89,0,0,0-.624,6.519,10.309,10.309,0,0,0,.514,2.683,2.044,2.044,0,0,0,1.982,1.383.828.828,0,0,0,.941-.623.7.7,0,0,0-.688-.847,1.336,1.336,0,0,1-1.224-1.353,23.9,23.9,0,0,1-.126-3.5A52.436,52.436,0,0,1,385.324,275.049Zm1.7-6.225a120.515,120.515,0,0,1,8.537-20.094,29.071,29.071,0,0,1,2.061-3.305c.3-.418.928-1.291.969-.712a9.61,9.61,0,0,1-.786,2.718c-1.525,3.962-3.25,7.846-5.024,11.7a56.137,56.137,0,0,1-5.972,10.472C386.882,269.344,386.943,269.081,387.026,268.824Zm-11.495-2.232a78.913,78.913,0,0,1,7.989-15.73c.809-1.207,1.757-2.322,2.656-3.468.166-.211.535-.645.8-.444.147.211-.166.788-.541,1.776a64.084,64.084,0,0,1-4.009,8.5,58.974,58.974,0,0,1-7.083,9.967C375.4,266.995,375.455,266.789,375.531,266.592Zm-18.864,12.9c-2.236-1.243.639-10.037,3.505-10.51a6.12,6.12,0,0,0,1.99,1.712C362.565,273.68,358.508,279.941,356.667,279.5Z" transform="translate(-307.559 -242.824)"/>
    </g>
    <path id="Path_12" data-name="Path 12" d="M504.747,318.945c-.2-.321-.37-.2-.69-.08a4.48,4.48,0,0,0-.74.422c-3.073,2.508-6.7,5.291-10.363,6.259a6.61,6.61,0,0,1-1.971.229,2.2,2.2,0,0,1-2.231-2.518,3.637,3.637,0,0,1,.065-.566,6.379,6.379,0,0,1,1.343-3.2.754.754,0,0,0-.031-1.173.878.878,0,0,0-1.247.247.759.759,0,0,0-.1.159,9.769,9.769,0,0,0-.994,5.35,2.878,2.878,0,0,0,1.888,2.328,10.87,10.87,0,0,0,1.629.413c.6-.067.982-.08,1.352-.157,4.1-.847,10.808-6.013,11.856-6.783A.779.779,0,0,0,504.747,318.945Z" transform="translate(-98.176 -41.053)"/>
  </g>
</svg>
