<svg xmlns="http://www.w3.org/2000/svg" width="91.033" height="87.826" viewBox="0 0 91.033 87.826">
  <g id="Group_98" data-name="Group 98" transform="translate(0)">
    <g id="Group_97" data-name="Group 97" transform="translate(0)">
      <g id="Group_96" data-name="Group 96" transform="translate(0 0)">
        <g id="Group_92" data-name="Group 92" transform="translate(22.644 17.322)">
          <path id="Path_39" data-name="Path 39" d="M180.031,82.761c-3.629-5.121-14.267-3.652-22.777-3.859q-14.755-.359-29.456.236c-3.4.138-7,.382-9.66,2.356-3.377,2.505-4.363,7.137-4.537,11.442-.167,4.144.589,9.012,4.169,11.362,2.326,1.527,5.226,1.549,7.93,1.515l37.819-.465c2.457-.03,14.544.806,16.826-3.356C182.437,98.177,182.686,86.507,180.031,82.761Z" transform="translate(-113.58 -78.767)" fill="#ff2100"/>
          <path id="Path_40" data-name="Path 40" d="M251.519,140.776l1.279,7.211-12.329-6.513Z" transform="translate(-191.85 -117.016)" fill="#ff2100"/>
        </g>
        <g id="Group_93" data-name="Group 93" transform="translate(0 48.529)">
          <path id="Path_41" data-name="Path 41" d="M56.217,164.126c3.025-5.066,11.621-3.6,18.521-3.793Q86.7,160,98.6,160.6c2.752.141,5.664.387,7.789,2.345,2.7,2.485,3.419,7.072,3.489,11.335.067,4.1-.625,8.923-3.565,11.245-1.91,1.509-4.26,1.527-6.451,1.49l-30.639-.506c-1.991-.033-11.8.78-13.58-3.343C54.013,179.388,54,167.833,56.217,164.126Z" transform="translate(-54.481 -160.213)" fill="#ff8080"/>
          <path id="Path_42" data-name="Path 42" d="M75.817,221.522l-1.279,7.211,12.329-6.513Z" transform="translate(-66.853 -198.031)" fill="#ff8080"/>
        </g>
        <g id="Group_94" data-name="Group 94" transform="translate(32.484 23.839)">
          <path id="Path_43" data-name="Path 43" d="M144.1,107.66a.479.479,0,0,1-.019.388.353.353,0,0,1-.194.277,1.715,1.715,0,0,1-.3.111,1.046,1.046,0,0,1-.2.018h-.425a.944.944,0,0,0-.185.018,1.154,1.154,0,0,0-.12.01c-.056.006-.169.009-.342.009q-.314,0-.776-.009t-.905-.028l-.628-.028a2.92,2.92,0,0,1-.332-.028c-.074-.012-.123-.021-.148-.028a.238.238,0,0,0-.056-.009.408.408,0,0,1-.13-.166,1.269,1.269,0,0,1-.055-.166v-.055a.494.494,0,0,1,.018-.3v-.056a.325.325,0,0,1,.212-.268c.117-.043.213-.077.287-.1h.018v-.148c0-.012,0-.083-.009-.212s-.012-.286-.019-.471-.012-.382-.018-.591-.01-.407-.01-.591v-.573q0-.554-.009-1.385t-.018-1.81q-.01-.979-.018-1.838t-.018-1.478q-.01-.618-.01-.73a1.1,1.1,0,0,1,.037-.342.4.4,0,0,1,.129-.175.016.016,0,0,0,.019-.018.4.4,0,0,1,.2-.221,2.351,2.351,0,0,1,.314-.13.59.59,0,0,1,.166-.037.477.477,0,0,1,.194.037c.055.025.108.049.157.074l.074.037a.8.8,0,0,1,.222.175,1.848,1.848,0,0,1,.2.268l.019.037a1.821,1.821,0,0,1,.074.175c.025.068.056.157.093.268l.092.3a2.564,2.564,0,0,1,.092.462q.037.3.065.582c.018.191.033.36.046.508s.018.228.018.24v.018l-.037,5.949q-.018.333-.037.536c-.012.136-.025.268-.037.4s-.018.213-.018.249v.333a5.2,5.2,0,0,0,.628.018h.314a1.577,1.577,0,0,1,.277.037c.061.012.117.021.166.028a1.348,1.348,0,0,0,.166.009h.148a.843.843,0,0,1,.249.028,1.2,1.2,0,0,1,.157.065.229.229,0,0,1,.13.12c.025.056.049.108.074.157a.038.038,0,0,0,.009.028A.038.038,0,0,1,144.1,107.66Z" transform="translate(-139.261 -96.225)" fill="#fff"/>
          <path id="Path_44" data-name="Path 44" d="M160.408,104.907a5.114,5.114,0,0,1,.009.526c-.007.166-.009.311-.009.434a.693.693,0,0,0-.018.166c0,.062,0,.13-.009.2s-.016.16-.028.259l-.056.3a2.8,2.8,0,0,1-.111.5.6.6,0,0,0-.037.148,1.164,1.164,0,0,1-.074.221l-.111.443a1.634,1.634,0,0,1-.111.277,3.144,3.144,0,0,0-.13.3l-.037.074q-.074.148-.231.434a4.445,4.445,0,0,1-.249.416,1.757,1.757,0,0,1-.3.3,2.513,2.513,0,0,1-.36.249,2.61,2.61,0,0,1-.24.148,1.263,1.263,0,0,1-.2.074.571.571,0,0,1-.212.037h-.213a.166.166,0,0,1-.074.019h-.056a1.429,1.429,0,0,0-.157.009,1.511,1.511,0,0,1-.175.01h-.074c-.037,0-.108-.007-.212-.018s-.216-.028-.333-.046-.228-.04-.333-.065a.724.724,0,0,1-.212-.074c-.062-.037-.179-.114-.351-.231a2.7,2.7,0,0,1-.37-.287l-.259-.351c-.025-.037-.049-.071-.074-.1s-.049-.065-.074-.1a1.869,1.869,0,0,1-.138-.231c-.056-.1-.111-.215-.166-.332s-.1-.228-.148-.333a1.82,1.82,0,0,1-.083-.231,2.964,2.964,0,0,1-.129-.416q-.056-.23-.092-.4c0-.049-.007-.16-.019-.332s-.025-.357-.037-.554-.025-.379-.037-.545-.019-.28-.019-.342,0-.132.01-.212.015-.163.028-.25a1.759,1.759,0,0,1,.009-.185c.006-.061.009-.117.009-.166a2.7,2.7,0,0,1,.092-.508q.093-.379.24-.859a1.764,1.764,0,0,0,.092-.332.591.591,0,0,1,.065-.175q.046-.083.1-.194l.13-.258A1.228,1.228,0,0,1,155,102l.2-.287.056-.074q.055-.074.148-.185t.185-.2q.093-.111.222-.24c.025-.025.067-.065.129-.12s.13-.111.2-.166l.213-.157c.067-.049.12-.086.157-.111a.321.321,0,0,0,.092-.037q.148-.074.277-.129a1.167,1.167,0,0,1,.222-.074h.646c.025,0,.083.007.175.018a1.364,1.364,0,0,1,.249.056l.111.055q.2.074.4.157a1.257,1.257,0,0,1,.3.175,1.825,1.825,0,0,1,.277.259q.129.148.2.24l.083.166q.046.093.083.185l.074.13.369.942.037.129a2.641,2.641,0,0,1,.138.526q.046.287.065.471,0,.037.009.046a.075.075,0,0,1,.009.046c0,.037,0,.086.009.148s.01.136.01.221a2.792,2.792,0,0,1,.018.333A2.148,2.148,0,0,0,160.408,104.907Zm-2.494,4.4a.43.43,0,0,0,.185-.093c.037-.049.086-.117.148-.2a.915.915,0,0,0,.129-.24q.056-.129.12-.333t.1-.333a1.288,1.288,0,0,0,.037-.212c.012-.1.028-.218.046-.342s.034-.237.046-.342a2.226,2.226,0,0,0,.019-.231,3.363,3.363,0,0,0,.018-.4,2.076,2.076,0,0,0-.018-.342.772.772,0,0,1-.019-.231q0-.194-.037-.619,0-.24-.009-.508c-.006-.178-.016-.351-.028-.517s-.022-.311-.028-.434a1.556,1.556,0,0,0-.028-.259l-.074-.554q-.037-.3-.064-.6a1.865,1.865,0,0,0-.084-.453,2.835,2.835,0,0,0-.258-.665c-.062-.111-.118-.172-.166-.185a.464.464,0,0,0-.2-.037.594.594,0,0,0-.166.037.612.612,0,0,1-.1.037.228.228,0,0,0-.1.056.632.632,0,0,0-.13.129.74.74,0,0,0-.111.185l-.037.074a.35.35,0,0,0-.065.092q-.028.056-.083.185l-.148.407v.056a.207.207,0,0,1-.009.065.279.279,0,0,0-.009.083l-.037.2a5.292,5.292,0,0,0-.111.572q-.037.314-.046.517c-.007.136-.009.265-.009.388,0,.074,0,.179-.009.314a3.105,3.105,0,0,1-.046.407,1.3,1.3,0,0,0-.018.213v.12a.626.626,0,0,1-.009.092.764.764,0,0,0-.009.13v.443c0,.062,0,.163.009.3s.012.287.018.435.012.283.018.406.01.2.01.24.028.139.046.268a2.419,2.419,0,0,0,.065.323,1.867,1.867,0,0,0,.074.175l.12.259c.043.092.083.175.12.249a.714.714,0,0,0,.074.129q.037.037.148.166a1.264,1.264,0,0,0,.185.185.683.683,0,0,0,.129.092c.062.037.1.062.13.074a1.088,1.088,0,0,1,.111.009,1,1,0,0,0,.129.01Z" transform="translate(-148.385 -98.514)" fill="#fff"/>
          <path id="Path_45" data-name="Path 45" d="M178.768,98.476a.844.844,0,0,1,.028.462,2.181,2.181,0,0,1-.083.388v.019l-.887,3.252q-.018.055-.138.508t-.287,1.108q-.166.656-.369,1.413t-.379,1.422l-.3,1.154q-.129.49-.166.582a.965.965,0,0,1-.148.342.431.431,0,0,1-.222.12l-.074.037a.667.667,0,0,1-.333.074,1.458,1.458,0,0,1-.314-.037.641.641,0,0,1-.277-.129,4.341,4.341,0,0,1-.351-.314c-.1-.1-.188-.194-.268-.287a.532.532,0,0,1-.139-.268c-.012-.037-.04-.111-.083-.222s-.1-.237-.157-.379l-.194-.443q-.1-.231-.175-.416v-.018q-.018-.074-.157-.619t-.342-1.33q-.2-.785-.434-1.7t-.435-1.718q-.2-.8-.342-1.4t-.157-.72a1.728,1.728,0,0,1,.028-.61,2.781,2.781,0,0,1,.139-.407l.037-.074a.494.494,0,0,1,.148-.185.547.547,0,0,1,.351-.092h.12a.861.861,0,0,1,.157.018.744.744,0,0,1,.314.12,1.213,1.213,0,0,1,.2.194c.061.062.126.129.194.2a1.313,1.313,0,0,1,.194.3l.019.056.333.665a2.17,2.17,0,0,1,.2.536l.462,1.515q.018.074.111.369t.2.7q.111.407.24.859t.249.859q.12.407.194.684c.049.185.08.3.092.333l.037.074q.037-.148.157-.61t.286-1.081q.167-.618.342-1.312t.341-1.3q.167-.61.277-1.044c.074-.289.116-.471.129-.545a3.53,3.53,0,0,1,.2-.61c.086-.2.16-.351.222-.462a.323.323,0,0,0,.037-.092.622.622,0,0,1,.287-.259c.129-.061.212-.1.249-.111h.111a.729.729,0,0,1,.24.055l.037.019a.389.389,0,0,1,.222.24A.351.351,0,0,0,178.768,98.476Z" transform="translate(-159.189 -97.146)" fill="#fff"/>
          <path id="Path_46" data-name="Path 46" d="M196.511,99.917a2.227,2.227,0,0,1,.056.536v.185a.973.973,0,0,1-.018.185l-.037.332a1.585,1.585,0,0,1-.194.647,4.7,4.7,0,0,1-.4.628,4.938,4.938,0,0,1-.462.536q-.24.24-.388.369a2.653,2.653,0,0,1-.379.221,4.228,4.228,0,0,1-.49.222,1.854,1.854,0,0,1-.267.065l-.3.056c-.1.018-.222.034-.37.046h-.3a.285.285,0,0,0-.037.111c0,.049,0,.148-.009.3a2.478,2.478,0,0,1-.028.314v.526a5.561,5.561,0,0,0,.037.619,7.3,7.3,0,0,0,.139.942,4.261,4.261,0,0,0,.194.7,1.684,1.684,0,0,0,.231.4q.138.176.231.305a1.283,1.283,0,0,0,.185.185q.074.055.222.148a.578.578,0,0,0,.369.092,1.6,1.6,0,0,0,.249-.019c.08-.012.151-.025.212-.037a.708.708,0,0,0,.444-.323,2.476,2.476,0,0,0,.221-.6v-.018a1.282,1.282,0,0,1,.056-.166.394.394,0,0,1,.074-.129,1.265,1.265,0,0,1,.138-.111.331.331,0,0,1,.194-.074q.2,0,.277.259a.4.4,0,0,1,0,.24.076.076,0,0,1-.009.046c-.007.006-.009.021-.009.046a.944.944,0,0,1-.019.185,1.056,1.056,0,0,1-.055.185l-.037.147a1.618,1.618,0,0,1-.443.795,2.32,2.32,0,0,1-.684.453,3.038,3.038,0,0,1-.739.212,4.243,4.243,0,0,1-.61.056h-.092a1.512,1.512,0,0,1-.462-.056,2.678,2.678,0,0,1-.407-.185.106.106,0,0,1-.074-.037,2.668,2.668,0,0,1-.545-.379q-.286-.25-.434-.4l-.092-.092a1.294,1.294,0,0,1-.129-.157l-.157-.213q-.083-.11-.148-.212a.77.77,0,0,1-.083-.157,1.244,1.244,0,0,1-.1-.268q-.065-.212-.12-.453t-.111-.452a1.54,1.54,0,0,1-.056-.268,2.225,2.225,0,0,1-.037-.286q-.018-.212-.046-.471t-.046-.508c-.012-.166-.018-.287-.018-.36s.006-.194.018-.36.028-.342.046-.527.043-.369.074-.554.059-.339.083-.462q.093-.351.213-.711a3.411,3.411,0,0,1,.268-.619q.037-.074.083-.157c.031-.056.065-.12.1-.194q.167-.333.369-.72a4.99,4.99,0,0,1,.351-.591,2.188,2.188,0,0,1,.5-.425c.21-.136.363-.234.462-.3a.037.037,0,0,0,.028-.009.038.038,0,0,1,.028-.009q.093-.037.3-.1t.517-.138a1.3,1.3,0,0,1,.314-.037q.259,0,.536.028c.185.019.283.028.3.028a1.026,1.026,0,0,1,.129.028c.074.018.154.04.24.065a1.822,1.822,0,0,1,.268.1,1.168,1.168,0,0,1,.231.139A1.865,1.865,0,0,1,196.511,99.917Zm-.831,1.108a1.706,1.706,0,0,0,.046-.323q.009-.175.009-.249a.633.633,0,0,0-.046-.129.316.316,0,0,0-.046-.074.16.16,0,0,0-.129-.074H195.5c-.025,0-.067,0-.129.009s-.123.016-.185.028a.256.256,0,0,0-.111.019,1.245,1.245,0,0,0-.24.083c-.1.043-.179.077-.24.1l-.037.018a1.615,1.615,0,0,0-.277.231c-.136.129-.228.219-.277.268l-.055.074c-.025.037-.049.071-.074.1a.674.674,0,0,0-.074.12l-.13.333-.2.48-.111.369-.056.222a1.818,1.818,0,0,0-.065.194.656.656,0,0,0-.028.139q0,.037.018.037v.018h.074a1.51,1.51,0,0,0,.185-.018,2.814,2.814,0,0,0,.333-.074,2.353,2.353,0,0,0,.647-.259,1.557,1.557,0,0,0,.369-.277,6.563,6.563,0,0,0,.536-.61A1.537,1.537,0,0,0,195.68,101.025Z" transform="translate(-170.929 -97.682)" fill="#fff"/>
          <path id="Path_47" data-name="Path 47" d="M221.259,97.016v.444q0,.37-.009.813t-.018.85c-.007.271-.009.462-.009.573v1.376q0,.526-.018,1.053t-.037.8q0,.093-.046.434c-.031.228-.068.493-.111.795s-.1.631-.185.988-.173.7-.277,1.035a5.963,5.963,0,0,1-.369.915,2.07,2.07,0,0,1-.471.637,2.884,2.884,0,0,1-.5.333q-.129.055-.388.148a1.366,1.366,0,0,1-.443.092,1.694,1.694,0,0,1-.407-.055,3.434,3.434,0,0,1-.369-.111,3.93,3.93,0,0,1-.434-.213,1.136,1.136,0,0,1-.36-.286,2.735,2.735,0,0,1-.212-.305,2.937,2.937,0,0,1-.194-.36,1.307,1.307,0,0,1-.111-.332q-.037-.185-.074-.314l-.018-.037-.074-.462a.977.977,0,0,1,.074-.425.456.456,0,0,1,.24-.24.332.332,0,0,1,.2-.055.527.527,0,0,1,.175.037.422.422,0,0,1,.194.185,1.255,1.255,0,0,1,.129.259,2.529,2.529,0,0,1,.2.61.846.846,0,0,0,.231.4.9.9,0,0,0,.342.231,2.027,2.027,0,0,0,.573.093h.111a.017.017,0,0,0,.019-.019.442.442,0,0,0,.147-.111l.13-.13a.452.452,0,0,0,.074-.185v-.092a1.1,1.1,0,0,0,.028-.231,2.572,2.572,0,0,1,.028-.287v-.185q0-.056.009-.453t.018-.905q.009-.508.01-1.007v-.758l-.148.13a.385.385,0,0,1-.175.148c-.08.037-.169.08-.268.13l-.037.018a1.982,1.982,0,0,1-.369.12,1.763,1.763,0,0,1-.388.065.075.075,0,0,1-.055.018,2.121,2.121,0,0,1-.36-.037,1.652,1.652,0,0,1-.305-.074.8.8,0,0,1-.148-.074l-.111-.074a.641.641,0,0,0-.166-.111,1.113,1.113,0,0,1-.277-.259.8.8,0,0,1-.111-.166l-.056-.092q-.093-.129-.2-.323a2.37,2.37,0,0,1-.166-.342,1.93,1.93,0,0,1-.111-.453q-.037-.267-.074-.564l-.019-.111a2.714,2.714,0,0,1,.009-.49q.028-.378.065-1.025.018-.388.056-.767t.065-.7q.028-.323.055-.545t.028-.277a2.232,2.232,0,0,1,.064-.222,1.531,1.531,0,0,1,.065-.148.543.543,0,0,1,.037-.065.652.652,0,0,0,.037-.065.557.557,0,0,1,.166-.212.9.9,0,0,1,.185-.1l.056-.037a.365.365,0,0,1,.166-.037.552.552,0,0,1,.175.028c.056.018.114.04.176.065a.66.66,0,0,1,.24.129l.13.111a.463.463,0,0,1,.194.2c.031.074.059.142.083.2a.166.166,0,0,1,.018.074,2.294,2.294,0,0,1,.083.286q.046.194.1.453a3.522,3.522,0,0,1,0,.905v.194a1.3,1.3,0,0,1-.019.212c-.012.111-.021.228-.028.351a2.144,2.144,0,0,1-.046.351l-.055.536q-.037.462-.056.841t-.018.638a2.036,2.036,0,0,0,.018.314.953.953,0,0,0,.056.2v.056a.391.391,0,0,0,.064.12.406.406,0,0,0,.1.065h.018a.919.919,0,0,0,.369-.111.414.414,0,0,0,.139-.083l.083-.083.055-.056a3.252,3.252,0,0,0,.213-.259q.157-.2.194-.24l.166-.407a1.713,1.713,0,0,1,.111-.333c0-.025.006-.037.018-.037,0-.037.007-.132.019-.286s.025-.317.037-.489q0-.111.009-.527t.019-.887q.009-.471.018-.877a4.25,4.25,0,0,1,.028-.5,2.537,2.537,0,0,1,.1-.388c.043-.123.089-.24.139-.351v-.018a.623.623,0,0,1,.175-.24l.139-.092a.053.053,0,0,1,.037-.019.673.673,0,0,1,.268-.074c.117-.012.206-.018.268-.018a.766.766,0,0,1,.2.018.489.489,0,0,1,.268.2,2.034,2.034,0,0,1,.379,1.016Z" transform="translate(-186.292 -95.778)" fill="#fff"/>
          <path id="Path_48" data-name="Path 48" d="M239.767,104.907a5.106,5.106,0,0,1,.009.526c-.006.166-.009.311-.009.434a.673.673,0,0,0-.019.166c0,.062,0,.13-.009.2s-.015.16-.028.259l-.056.3a2.734,2.734,0,0,1-.111.5.59.59,0,0,0-.037.148,1.164,1.164,0,0,1-.074.221l-.111.443a1.6,1.6,0,0,1-.111.277,3.043,3.043,0,0,0-.129.3l-.037.074q-.074.148-.231.434a4.536,4.536,0,0,1-.249.416,1.771,1.771,0,0,1-.305.3,2.555,2.555,0,0,1-.36.249,2.606,2.606,0,0,1-.24.148,1.271,1.271,0,0,1-.2.074.573.573,0,0,1-.213.037h-.212a.167.167,0,0,1-.074.019H236.9a1.417,1.417,0,0,0-.157.009,1.513,1.513,0,0,1-.176.01H236.5c-.037,0-.108-.007-.213-.018s-.216-.028-.333-.046-.228-.04-.333-.065a.727.727,0,0,1-.212-.074c-.062-.037-.179-.114-.351-.231a2.687,2.687,0,0,1-.369-.287l-.259-.351c-.025-.037-.049-.071-.074-.1s-.049-.065-.074-.1a1.86,1.86,0,0,1-.139-.231c-.055-.1-.111-.215-.166-.332s-.1-.228-.148-.333a1.761,1.761,0,0,1-.083-.231,3.018,3.018,0,0,1-.129-.416q-.055-.23-.092-.4,0-.074-.018-.332c-.012-.172-.025-.357-.037-.554s-.025-.379-.037-.545-.018-.28-.018-.342,0-.132.009-.212.015-.163.028-.25c0-.061,0-.123.009-.185s.01-.117.01-.166a2.683,2.683,0,0,1,.092-.508q.093-.379.24-.859a1.763,1.763,0,0,0,.092-.332.59.59,0,0,1,.065-.175c.031-.056.065-.12.1-.194l.13-.258a1.23,1.23,0,0,1,.166-.323l.2-.287.056-.074c.037-.049.086-.111.148-.185s.123-.141.185-.2.135-.154.221-.24c.024-.025.067-.065.129-.12s.129-.111.2-.166l.213-.157c.067-.049.12-.086.157-.111a.321.321,0,0,0,.092-.037q.148-.074.277-.129a1.156,1.156,0,0,1,.221-.074h.647c.025,0,.083.007.175.018a1.363,1.363,0,0,1,.249.056l.111.055q.2.074.4.157a1.261,1.261,0,0,1,.3.175,1.827,1.827,0,0,1,.277.259q.129.148.2.24l.083.166q.046.093.084.185l.074.13.37.942.037.129a2.641,2.641,0,0,1,.139.526c.03.191.052.348.064.471,0,.025,0,.04.01.046a.078.078,0,0,1,.009.046,1.463,1.463,0,0,0,.009.148c.006.062.009.136.009.221a2.714,2.714,0,0,1,.018.333A2.147,2.147,0,0,0,239.767,104.907Zm-2.494,4.4a.432.432,0,0,0,.185-.093q.055-.074.148-.2a.929.929,0,0,0,.13-.24q.055-.129.12-.333t.1-.333a1.287,1.287,0,0,0,.037-.212c.012-.1.028-.218.046-.342s.034-.237.046-.342a2.2,2.2,0,0,0,.018-.231,3.348,3.348,0,0,0,.019-.4,2.062,2.062,0,0,0-.019-.342.778.778,0,0,1-.018-.231q0-.194-.037-.619c0-.16,0-.329-.009-.508s-.016-.351-.028-.517-.021-.311-.028-.434a1.587,1.587,0,0,0-.028-.259l-.074-.554q-.037-.3-.065-.6a1.868,1.868,0,0,0-.083-.453,2.83,2.83,0,0,0-.259-.665c-.062-.111-.117-.172-.166-.185a.463.463,0,0,0-.2-.037.591.591,0,0,0-.166.037.617.617,0,0,1-.1.037.231.231,0,0,0-.1.056.631.631,0,0,0-.129.129.727.727,0,0,0-.111.185l-.037.074a.36.36,0,0,0-.065.092q-.028.056-.083.185l-.148.407v.056a.218.218,0,0,1-.009.065.264.264,0,0,0-.01.083l-.037.2a5.209,5.209,0,0,0-.111.572q-.037.314-.046.517t-.009.388q0,.111-.009.314a3.1,3.1,0,0,1-.046.407,1.261,1.261,0,0,0-.019.213v.12a.582.582,0,0,1-.009.092.8.8,0,0,0-.009.13v.443q0,.093.009.3c.006.142.012.287.019.435s.012.283.018.406.01.2.01.24.028.139.046.268a2.414,2.414,0,0,0,.065.323c.012.037.037.1.074.175l.12.259c.043.092.083.175.12.249a.668.668,0,0,0,.074.129q.037.037.148.166a1.268,1.268,0,0,0,.185.185.688.688,0,0,0,.13.092c.061.037.1.062.13.074a1.088,1.088,0,0,1,.111.009,1,1,0,0,0,.129.01Z" transform="translate(-197.337 -98.514)" fill="#fff"/>
          <path id="Path_49" data-name="Path 49" d="M259.344,109.859a.431.431,0,0,1,.056.185.334.334,0,0,1-.037.148.138.138,0,0,0-.019.056.435.435,0,0,1-.046.139c-.031.067-.108.1-.231.1h-.092a1.483,1.483,0,0,1-.388-.092,2.195,2.195,0,0,1-.37-.148,2.259,2.259,0,0,1-.259-.194q-.166-.138-.259-.231a2.623,2.623,0,0,1-.231-.277c-.092-.123-.17-.234-.231-.333a2.608,2.608,0,0,1-.166-.379q-.093-.249-.148-.453a.076.076,0,0,0-.018.056,1.88,1.88,0,0,1-.166.453q-.111.213-.185.323a2.826,2.826,0,0,1-.517.5.528.528,0,0,1-.212.1c-.08.018-.151.034-.213.046l-.148.037a1.152,1.152,0,0,1-.277.037,2.864,2.864,0,0,1-.314-.018,1.849,1.849,0,0,1-.3-.055,2.085,2.085,0,0,1-.5-.176,1.108,1.108,0,0,1-.351-.249l-.092-.074c-.1-.123-.2-.237-.3-.341a.934.934,0,0,1-.2-.305,5.965,5.965,0,0,1-.314-.813,3.1,3.1,0,0,1-.166-.942c0-.148,0-.345-.009-.591s-.013-.487-.019-.721-.015-.523-.028-.868v-.018q0-.037.018-.3t.037-.656q.018-.4.046-.859t.056-.905c.018-.3.037-.56.055-.795s.034-.412.046-.536a1.089,1.089,0,0,1,.148-.508,1.393,1.393,0,0,1,.3-.351,1.274,1.274,0,0,1,.323-.2.709.709,0,0,1,.249-.065h.018a.386.386,0,0,1,.268.111,1.245,1.245,0,0,1,.212.258,2.658,2.658,0,0,1,.2.37,1.045,1.045,0,0,1,.056.259c.012.111.025.253.037.425a1.662,1.662,0,0,1,.018.231.708.708,0,0,0,.019.175,3.381,3.381,0,0,1,.009.49q-.01.4-.028.877t-.046.924q-.028.443-.028.61,0,.037-.009.268t-.01.536q0,.305.01.6c.006.2.009.351.009.462a3.942,3.942,0,0,0,.028.434c.018.166.04.332.065.5s.046.323.064.471a1.858,1.858,0,0,0,.065.333,1.706,1.706,0,0,0,.231.471,1.5,1.5,0,0,0,.231.3.176.176,0,0,0,.083.037.3.3,0,0,1,.083.019.144.144,0,0,1,.056.018.037.037,0,0,0,.028-.01.039.039,0,0,1,.028-.009l.129-.056c.012,0,.025-.012.037-.037l.056-.092a.5.5,0,0,0,.083-.157q.046-.12.083-.213c.049-.123.086-.212.111-.268a.4.4,0,0,1,.074-.12c.012-.037.037-.117.074-.24s.077-.259.12-.407.084-.283.12-.407a1.956,1.956,0,0,1,.074-.221,1.354,1.354,0,0,1,.018-.157q.018-.12.037-.259t.028-.249c.006-.074.009-.123.009-.148a.651.651,0,0,0,.018-.185,1.007,1.007,0,0,0,.037-.221v-.776q0-.259.009-.628t.019-.813q.009-.443.028-.841t.028-.693a2.907,2.907,0,0,1,.028-.388q.037-.259.092-.564a2.212,2.212,0,0,1,.111-.434.659.659,0,0,1,.249-.286c.13-.092.212-.151.249-.175a.122.122,0,0,0,.055-.01.137.137,0,0,1,.056-.009.909.909,0,0,1,.3.064.987.987,0,0,1,.268.139.612.612,0,0,1,.194.221q.064.13.139.314a1.105,1.105,0,0,1,.074.323q.018.194.055.4l.037.406a3.244,3.244,0,0,1,.028.407q.009.314.009.794t-.009,1.081q-.01.6-.009,1.247v.924q0,.166.018.619t.056.951q.037.5.065.915a2.351,2.351,0,0,0,.064.508l.092.277a.439.439,0,0,0,.056.185.9.9,0,0,1,.055.092.277.277,0,0,0,.056.074A.555.555,0,0,1,259.344,109.859Z" transform="translate(-209.173 -98.128)" fill="#fff"/>
        </g>
        <g id="Group_95" data-name="Group 95" transform="translate(6.512 55.048)">
          <path id="Path_50" data-name="Path 50" d="M81.046,189.071a.477.477,0,0,1-.019.3.408.408,0,0,1-.148.157.017.017,0,0,1-.019.018.406.406,0,0,1-.259.074,1.289,1.289,0,0,1-.5-.092q-.148-.056-.361-.157a.87.87,0,0,1-.342-.286,2.89,2.89,0,0,1-.157-.249q-.1-.176-.194-.37t-.157-.36a2.206,2.206,0,0,1-.083-.24,3.624,3.624,0,0,1-.065-.4q-.047-.342-.1-.73t-.1-.73q-.046-.342-.046-.434h-.019v-.019q0-.037-.009-.48t-.019-1.025q-.009-.582-.009-1.145a7.491,7.491,0,0,1,.037-.859c.012-.185.016-.409.01-.674s-.016-.523-.028-.776-.025-.468-.037-.647-.018-.28-.018-.3a.317.317,0,0,0-.018-.092l-.037-.111h-.018a.838.838,0,0,0-.111.184q-.074.148-.166.351a1.773,1.773,0,0,0-.1.471q-.046.36-.083.619a2.321,2.321,0,0,0-.056.388,2.484,2.484,0,0,0-.083.462q-.047.37-.083.684a3.711,3.711,0,0,1-.074.462q0,.055-.018.6t-.028,1.228q-.01.683-.019,1.339t.01.933a1.966,1.966,0,0,1-.065.767,3.836,3.836,0,0,1-.175.453.321.321,0,0,0-.037.092.485.485,0,0,1-.074.175,1.04,1.04,0,0,1-.13.157l-.074.092a.567.567,0,0,1-.24.194c-.1.043-.179.077-.24.1a.194.194,0,0,0-.064.009.206.206,0,0,1-.065.009.789.789,0,0,1-.462-.129.751.751,0,0,1-.194-.185,2.11,2.11,0,0,1-.175-.259,1.157,1.157,0,0,1-.074-.259q-.037-.185-.064-.425t-.056-.471c-.018-.154-.034-.28-.046-.379v-.018l-.111-2.549q.018-.647.037-1.4t.037-1.441q.018-.683.028-1.173t.01-.619a.664.664,0,0,0-.046.175,1.249,1.249,0,0,1-.028.157l-.148.517q-.13.406-.287.97a5.793,5.793,0,0,0-.194.933q-.037.314-.111.684t-.148.7c-.025.136-.052.265-.083.388a1.249,1.249,0,0,0-.046.277l-.111,2.642q0,.2-.028.49a2.932,2.932,0,0,1-.083.489.632.632,0,0,1-.1.231c-.043.055-.083.108-.12.157l-.093.092a.512.512,0,0,1-.3.194q-.194.047-.4.084h-.111a.773.773,0,0,1-.351-.084.978.978,0,0,1-.259-.175.91.91,0,0,1-.12-.157,1.6,1.6,0,0,1-.12-.231c-.037-.086-.068-.163-.092-.231a.49.49,0,0,1-.037-.157c0-.012-.012-.1-.037-.268s-.053-.36-.084-.582-.062-.446-.092-.674-.053-.41-.065-.545v-.018l-.111-3.362c0-.025.006-.144.018-.36s.025-.48.037-.794.028-.656.046-1.025.037-.714.055-1.035.034-.6.046-.831a3.422,3.422,0,0,1,.037-.425.7.7,0,0,1,.24-.452.869.869,0,0,1,.406-.213h.093a.821.821,0,0,1,.277.046.778.778,0,0,1,.221.12,1.689,1.689,0,0,1,.3.3l.018.018q.074.093.175.231a1.474,1.474,0,0,1,.175.323,1.552,1.552,0,0,1,.12.4q.045.249.1.638a4.948,4.948,0,0,1,.018.5q0,.332-.009.683c-.007.234-.012.443-.018.628s-.009.3-.009.333v.056l.5-2a3.68,3.68,0,0,1,.231-.619,2.761,2.761,0,0,1,.249-.434.633.633,0,0,1,.314-.231,2.257,2.257,0,0,1,.314-.065H75.5a.927.927,0,0,1,.194.018,1.189,1.189,0,0,1,.175.056l.213.083a.955.955,0,0,1,.268.175,3.747,3.747,0,0,1,.379.48,2.129,2.129,0,0,1,.323.7.467.467,0,0,1,.046.148c.006.049.015.1.028.166l.037-.129a1.523,1.523,0,0,1,.092-.268c.037-.08.068-.151.093-.212.012-.025.025-.049.037-.074a.151.151,0,0,0,.018-.056,2.562,2.562,0,0,1,.333-.536l.018-.019q.093-.11.231-.268a1.327,1.327,0,0,1,.286-.249.528.528,0,0,1,.314-.092h.148q.092.018.24.055a1.105,1.105,0,0,1,.277.111q.093.074.268.222a1.136,1.136,0,0,1,.231.24.768.768,0,0,1,.1.166q.064.129.129.268c.043.092.08.179.111.259s.052.138.065.175a2.663,2.663,0,0,1,.092.323q.056.231.074.341,0,.037.018.287t.037.536q.018.287.037.526t.018.259v.323q0,.3-.009.767t-.009,1.025q0,.563-.009,1.09t-.009.951v.61a5.19,5.19,0,0,0,.092,1.063,1.741,1.741,0,0,0,.185.563c.025.037.046.071.065.1a.409.409,0,0,0,.065.084l.138.175A.625.625,0,0,1,81.046,189.071Z" transform="translate(-71.477 -177.377)" fill="#fff"/>
          <path id="Path_51" data-name="Path 51" d="M104.87,181.174a2.225,2.225,0,0,1,.056.536v.185a.972.972,0,0,1-.018.185l-.037.333a1.583,1.583,0,0,1-.194.646,4.708,4.708,0,0,1-.4.628,5.011,5.011,0,0,1-.462.536q-.24.24-.388.369a2.648,2.648,0,0,1-.379.222,4.212,4.212,0,0,1-.49.221,1.868,1.868,0,0,1-.267.065l-.3.056a3.674,3.674,0,0,1-.37.046h-.3a.281.281,0,0,0-.037.111c0,.049,0,.148-.009.3a2.469,2.469,0,0,1-.028.314v.526a5.557,5.557,0,0,0,.037.619,7.369,7.369,0,0,0,.138.942,4.3,4.3,0,0,0,.194.7,1.68,1.68,0,0,0,.231.4q.139.175.231.3a1.267,1.267,0,0,0,.185.185q.074.056.221.148a.58.58,0,0,0,.37.092,1.656,1.656,0,0,0,.249-.018c.08-.012.151-.025.212-.037a.708.708,0,0,0,.444-.323,2.49,2.49,0,0,0,.221-.6v-.018a1.245,1.245,0,0,1,.056-.167.394.394,0,0,1,.074-.129,1.266,1.266,0,0,1,.138-.111.334.334,0,0,1,.194-.074q.2,0,.277.259a.4.4,0,0,1,0,.24.078.078,0,0,1-.009.046c-.007.006-.009.021-.009.046a.943.943,0,0,1-.019.185,1.047,1.047,0,0,1-.055.185l-.037.148a1.619,1.619,0,0,1-.443.794,2.3,2.3,0,0,1-.684.452,3.054,3.054,0,0,1-.739.213,4.279,4.279,0,0,1-.61.055h-.092a1.524,1.524,0,0,1-.462-.055,2.725,2.725,0,0,1-.407-.185.106.106,0,0,1-.074-.037,2.668,2.668,0,0,1-.545-.379q-.287-.249-.434-.4l-.092-.092a1.292,1.292,0,0,1-.129-.157l-.157-.212c-.055-.074-.1-.145-.148-.213a.77.77,0,0,1-.083-.157,1.248,1.248,0,0,1-.1-.267c-.044-.142-.083-.293-.12-.453s-.074-.311-.111-.453a1.539,1.539,0,0,1-.056-.268,2.23,2.23,0,0,1-.037-.286c-.012-.142-.028-.3-.046-.471s-.034-.342-.046-.508-.019-.286-.019-.36.007-.194.019-.36.028-.342.046-.527.043-.369.074-.554.059-.339.083-.462q.093-.351.213-.711a3.416,3.416,0,0,1,.268-.619c.025-.049.052-.1.083-.157s.065-.12.1-.194q.167-.332.369-.72a4.968,4.968,0,0,1,.351-.591,2.188,2.188,0,0,1,.5-.425q.314-.2.462-.3a.039.039,0,0,0,.028-.009.038.038,0,0,1,.028-.01c.062-.025.16-.058.3-.1s.308-.089.517-.138a1.3,1.3,0,0,1,.314-.037c.172,0,.351.01.536.028s.283.028.3.028a.991.991,0,0,1,.129.028c.074.018.154.04.24.065a1.883,1.883,0,0,1,.268.1,1.179,1.179,0,0,1,.231.139A1.866,1.866,0,0,1,104.87,181.174Zm-.831,1.108a1.7,1.7,0,0,0,.046-.323c.006-.117.009-.2.009-.249a.638.638,0,0,0-.046-.13.334.334,0,0,0-.046-.074.161.161,0,0,0-.129-.074h-.019c-.025,0-.067,0-.129.009s-.123.016-.185.028a.259.259,0,0,0-.111.018,1.277,1.277,0,0,0-.24.083c-.1.043-.179.077-.24.1l-.037.018a1.635,1.635,0,0,0-.277.231q-.2.194-.277.268l-.055.074c-.025.037-.049.071-.074.1a.659.659,0,0,0-.074.12l-.13.333-.2.48-.111.37-.056.221a1.746,1.746,0,0,0-.065.194.656.656,0,0,0-.028.139c0,.025.006.037.018.037v.018h.074a1.486,1.486,0,0,0,.185-.018,2.891,2.891,0,0,0,.333-.074,2.366,2.366,0,0,0,.647-.259,1.558,1.558,0,0,0,.369-.277,6.565,6.565,0,0,0,.536-.61A1.535,1.535,0,0,0,104.039,182.282Z" transform="translate(-88.428 -179.013)" fill="#fff"/>
          <path id="Path_52" data-name="Path 52" d="M128.361,186.613a.311.311,0,0,1,.157.222.657.657,0,0,1,.01.24,3.1,3.1,0,0,1-.028.369,1.443,1.443,0,0,1-.064.314l-.222.369a.527.527,0,0,1-.074.129,1.857,1.857,0,0,1-.351.333,4.242,4.242,0,0,1-.351.259,1.6,1.6,0,0,1-.434.166,1.979,1.979,0,0,1-.471.074,2.108,2.108,0,0,1-.4-.046,1.148,1.148,0,0,1-.379-.139,2.053,2.053,0,0,1-.286-.2,2.142,2.142,0,0,1-.268-.258.9.9,0,0,1-.2-.259,3.2,3.2,0,0,1-.148-.3.317.317,0,0,1-.037-.092.453.453,0,0,1-.074-.185c-.025-.1-.046-.2-.065-.314s-.037-.215-.056-.314a1.454,1.454,0,0,1-.028-.185c0-.012,0-.068-.009-.166s-.016-.213-.028-.342-.022-.268-.028-.416-.015-.277-.028-.388v-.018c0-.012,0-.067-.009-.166s-.009-.212-.009-.342v-.619c0-.037.006-.172.018-.407s.028-.5.046-.794.037-.585.055-.868.034-.492.046-.628l-.3-.056a1.858,1.858,0,0,0-.194-.028.675.675,0,0,1-.194-.046.336.336,0,0,1-.13-.046.664.664,0,0,1-.074-.065.016.016,0,0,1-.018-.018.335.335,0,0,1-.111-.175.689.689,0,0,1-.037-.194.789.789,0,0,1,.028-.148.562.562,0,0,1,.12-.222.583.583,0,0,1,.351-.24.038.038,0,0,0,.028-.009.036.036,0,0,1,.028-.009,1.028,1.028,0,0,1,.2.037h.056a.085.085,0,0,1,.037.01.126.126,0,0,0,.055.009.131.131,0,0,1,.056.009.127.127,0,0,0,.055.009.038.038,0,0,1,.028.009c.006.007.021.009.046.009h.037v-.166l.037-.443v-.129l.055-.517a.64.64,0,0,1,.01-.111.841.841,0,0,0,.009-.129q.037-.24.074-.5c.025-.172.049-.314.074-.425a.629.629,0,0,1,.12-.314,1.012,1.012,0,0,1,.194-.166.28.28,0,0,1,.056-.046.1.1,0,0,0,.037-.046l.24-.184a.641.641,0,0,1,.443-.056,1.92,1.92,0,0,1,.24.1,1.032,1.032,0,0,1,.259.194,1.741,1.741,0,0,1,.369.665.462.462,0,0,1,.037.2c0,.087.007.2.019.351v.905c0,.16,0,.308-.009.443s-.01.253-.01.351v.056h.721a.542.542,0,0,0,.24-.019h.092a.39.39,0,0,1,.277.13.2.2,0,0,1,0,.2.053.053,0,0,1-.018.037.8.8,0,0,1-.148.258,1.255,1.255,0,0,1-.1.13.664.664,0,0,1-.157.13l-.212.083a2.425,2.425,0,0,1-.268.083l-.425.055c0,.086-.006.2-.018.333s-.022.271-.028.407-.012.256-.018.36-.009.175-.009.213,0,.157-.009.36-.013.431-.019.684-.012.5-.018.73-.009.394-.009.48,0,.215.009.388.021.358.046.554q.018.37.037.665a2.137,2.137,0,0,1,0,.407.341.341,0,0,0,.12.286.622.622,0,0,0,.286.176.365.365,0,0,0,.129-.046.631.631,0,0,0,.166-.12l.019-.018a.149.149,0,0,0,.074-.111l.056-.148a.569.569,0,0,0,.074-.221,1.207,1.207,0,0,1,.037-.148.687.687,0,0,1,.037-.092l.018-.018q.037-.148.24-.148A.591.591,0,0,1,128.361,186.613Z" transform="translate(-103.625 -177.228)" fill="#fff"/>
          <path id="Path_53" data-name="Path 53" d="M145.137,186.164a5.218,5.218,0,0,1,.009.526c-.007.166-.009.311-.009.434a.671.671,0,0,0-.019.166c0,.062,0,.129-.009.2s-.015.161-.028.259l-.055.3a2.758,2.758,0,0,1-.111.5.586.586,0,0,0-.037.148,1.156,1.156,0,0,1-.074.221l-.111.444a1.63,1.63,0,0,1-.111.277,3.072,3.072,0,0,0-.129.3l-.037.074q-.074.148-.231.434a4.53,4.53,0,0,1-.249.416,1.758,1.758,0,0,1-.3.305,2.574,2.574,0,0,1-.36.249,2.606,2.606,0,0,1-.24.148,1.314,1.314,0,0,1-.2.074.572.572,0,0,1-.212.037H142.4a.171.171,0,0,1-.074.018h-.056a1.333,1.333,0,0,0-.157.009,1.612,1.612,0,0,1-.176.009h-.074q-.056,0-.213-.018c-.1-.012-.216-.028-.332-.046s-.228-.04-.333-.065a.728.728,0,0,1-.212-.074c-.062-.037-.179-.114-.351-.231a2.687,2.687,0,0,1-.369-.286l-.259-.351c-.025-.037-.049-.071-.074-.1s-.049-.065-.074-.1a1.877,1.877,0,0,1-.139-.231q-.083-.157-.166-.333c-.055-.117-.1-.228-.148-.333a1.844,1.844,0,0,1-.083-.231,2.965,2.965,0,0,1-.129-.416c-.037-.154-.068-.286-.093-.4q0-.074-.018-.333c-.012-.172-.025-.357-.037-.554s-.025-.379-.037-.545-.018-.28-.018-.342,0-.132.009-.212.015-.163.028-.249c0-.062,0-.123.009-.185s.01-.117.01-.166a2.68,2.68,0,0,1,.092-.508q.093-.379.24-.859a1.773,1.773,0,0,0,.093-.333.593.593,0,0,1,.064-.175c.031-.056.065-.12.1-.194l.13-.259a1.234,1.234,0,0,1,.166-.323l.2-.286.056-.074c.037-.049.086-.111.148-.185s.123-.141.185-.2.135-.154.221-.241c.025-.024.068-.064.13-.12s.129-.111.2-.166l.213-.157c.067-.049.12-.086.157-.111a.315.315,0,0,0,.093-.037c.1-.049.191-.092.277-.13a1.183,1.183,0,0,1,.221-.074h.647c.025,0,.083.007.175.019a1.365,1.365,0,0,1,.249.055l.111.056q.2.074.4.157a1.236,1.236,0,0,1,.3.176,1.827,1.827,0,0,1,.277.259c.086.1.154.179.2.24l.083.166c.031.062.059.123.084.185l.074.129.369.942.037.129a2.642,2.642,0,0,1,.139.526q.046.287.064.471c0,.025,0,.04.01.046a.076.076,0,0,1,.009.046,1.449,1.449,0,0,0,.009.148q.009.093.009.221a2.718,2.718,0,0,1,.018.333A2.149,2.149,0,0,0,145.137,186.164Zm-2.494,4.4a.43.43,0,0,0,.185-.092c.037-.049.086-.117.148-.2a.946.946,0,0,0,.129-.241q.056-.129.12-.332c.043-.136.077-.246.1-.333a1.318,1.318,0,0,0,.037-.213c.012-.1.028-.218.046-.342s.034-.237.046-.342a2.2,2.2,0,0,0,.018-.231,3.364,3.364,0,0,0,.019-.4,2.064,2.064,0,0,0-.019-.342.778.778,0,0,1-.018-.231q0-.194-.037-.619c0-.16,0-.329-.009-.508s-.016-.351-.028-.517-.021-.311-.028-.435a1.646,1.646,0,0,0-.028-.259l-.074-.554q-.037-.3-.065-.6a1.843,1.843,0,0,0-.083-.453,2.812,2.812,0,0,0-.259-.665c-.062-.111-.117-.172-.166-.185a.464.464,0,0,0-.2-.037.591.591,0,0,0-.166.037.59.59,0,0,1-.1.037.23.23,0,0,0-.1.055.641.641,0,0,0-.129.129.736.736,0,0,0-.111.185l-.037.074a.361.361,0,0,0-.065.092q-.028.056-.083.185l-.148.406v.056a.217.217,0,0,1-.009.065.267.267,0,0,0-.01.083l-.037.2a5.3,5.3,0,0,0-.111.573c-.025.209-.04.382-.046.517s-.01.265-.01.388c0,.074,0,.179-.009.314a3.058,3.058,0,0,1-.046.407,1.261,1.261,0,0,0-.019.212v.12a.586.586,0,0,1-.009.093.8.8,0,0,0-.009.129v.443c0,.062,0,.164.009.3s.012.286.019.434.012.284.018.407.009.2.009.24.028.139.046.268a2.412,2.412,0,0,0,.064.323c.012.037.037.1.074.175l.12.259c.043.093.083.176.12.249a.667.667,0,0,0,.074.129c.025.025.074.08.148.167a1.308,1.308,0,0,0,.185.185.728.728,0,0,0,.13.092c.061.037.1.062.13.074a.987.987,0,0,1,.111.009,1.059,1.059,0,0,0,.129.009Z" transform="translate(-112.993 -179.845)" fill="#fff"/>
          <path id="Path_54" data-name="Path 54" d="M164.229,186.164a5.112,5.112,0,0,1,.009.526q-.009.249-.009.434a.69.69,0,0,0-.018.166c0,.062,0,.129-.009.2s-.015.161-.028.259l-.056.3a2.758,2.758,0,0,1-.111.5.587.587,0,0,0-.037.148,1.156,1.156,0,0,1-.074.221l-.111.444a1.629,1.629,0,0,1-.111.277,3.068,3.068,0,0,0-.129.3l-.037.074q-.074.148-.231.434a4.528,4.528,0,0,1-.249.416,1.759,1.759,0,0,1-.305.305,6.688,6.688,0,0,1-.6.4,1.314,1.314,0,0,1-.2.074.574.574,0,0,1-.213.037H161.5a.171.171,0,0,1-.074.018h-.056a1.329,1.329,0,0,0-.157.009,1.612,1.612,0,0,1-.176.009h-.074c-.037,0-.108-.006-.213-.018s-.216-.028-.333-.046-.228-.04-.333-.065a.727.727,0,0,1-.212-.074c-.062-.037-.179-.114-.351-.231a2.639,2.639,0,0,1-.369-.286l-.259-.351c-.025-.037-.049-.071-.074-.1s-.049-.065-.074-.1a1.825,1.825,0,0,1-.139-.231q-.083-.157-.166-.333c-.055-.117-.1-.228-.148-.333a1.826,1.826,0,0,1-.083-.231,2.971,2.971,0,0,1-.13-.416c-.037-.154-.068-.286-.092-.4,0-.049-.007-.16-.018-.333s-.025-.357-.037-.554-.025-.379-.037-.545-.019-.28-.019-.342,0-.132.01-.212.015-.163.028-.249a1.752,1.752,0,0,1,.009-.185c.006-.062.009-.117.009-.166a2.692,2.692,0,0,1,.092-.508q.093-.379.24-.859a1.758,1.758,0,0,0,.092-.333.6.6,0,0,1,.065-.175c.031-.056.065-.12.1-.194l.129-.259a1.246,1.246,0,0,1,.166-.323l.2-.286.056-.074q.055-.074.148-.185c.062-.074.123-.141.185-.2s.136-.154.222-.241c.025-.024.067-.064.129-.12s.13-.111.2-.166l.212-.157c.068-.049.12-.086.157-.111a.315.315,0,0,0,.092-.037q.148-.074.277-.13a1.194,1.194,0,0,1,.222-.074h.647c.024,0,.083.007.175.019a1.352,1.352,0,0,1,.249.055l.111.056q.2.074.4.157a1.236,1.236,0,0,1,.3.176,1.825,1.825,0,0,1,.277.259c.086.1.154.179.2.24l.083.166c.031.062.059.123.084.185l.074.129.37.942.037.129a2.639,2.639,0,0,1,.139.526c.03.191.052.348.064.471,0,.025,0,.04.01.046a.076.076,0,0,1,.009.046c0,.037,0,.086.009.148a2.156,2.156,0,0,1,.01.221,2.718,2.718,0,0,1,.018.333A2.145,2.145,0,0,0,164.229,186.164Zm-2.494,4.4a.432.432,0,0,0,.185-.092q.055-.074.148-.2a.936.936,0,0,0,.129-.241q.055-.129.12-.332c.043-.136.077-.246.1-.333a1.3,1.3,0,0,0,.037-.213c.012-.1.028-.218.046-.342s.033-.237.046-.342.018-.181.018-.231a3.375,3.375,0,0,0,.018-.4,2.076,2.076,0,0,0-.018-.342.78.78,0,0,1-.018-.231c0-.129-.013-.335-.037-.619,0-.16,0-.329-.009-.508s-.016-.351-.028-.517-.021-.311-.028-.435a1.582,1.582,0,0,0-.028-.259l-.074-.554q-.037-.3-.064-.6a1.861,1.861,0,0,0-.083-.453,2.827,2.827,0,0,0-.259-.665c-.062-.111-.117-.172-.166-.185a.464.464,0,0,0-.2-.037.59.59,0,0,0-.167.037.566.566,0,0,1-.1.037.23.23,0,0,0-.1.055.641.641,0,0,0-.129.129.734.734,0,0,0-.111.185l-.037.074a.351.351,0,0,0-.065.092c-.018.037-.046.1-.083.185l-.147.406v.056a.218.218,0,0,1-.009.065.265.265,0,0,0-.01.083l-.037.2a5.277,5.277,0,0,0-.111.573c-.025.209-.04.382-.046.517s-.009.265-.009.388c0,.074,0,.179-.009.314a3.129,3.129,0,0,1-.046.407,1.3,1.3,0,0,0-.018.212v.12a.586.586,0,0,1-.009.093.8.8,0,0,0-.009.129v.443c0,.062,0,.164.009.3s.012.286.018.434.012.284.018.407.01.2.01.24.028.139.046.268a2.4,2.4,0,0,0,.065.323,1.8,1.8,0,0,0,.074.175q.055.12.12.259c.043.093.083.176.12.249a.663.663,0,0,0,.074.129c.024.025.074.08.147.167a1.288,1.288,0,0,0,.185.185.712.712,0,0,0,.13.092c.061.037.1.062.129.074a.992.992,0,0,1,.111.009,1.054,1.054,0,0,0,.129.009Z" transform="translate(-124.77 -179.845)" fill="#fff"/>
        </g>
        <path id="Path_55" data-name="Path 55" d="M63.177,115.41a4.8,4.8,0,0,1,2.049-3.23,3.906,3.906,0,0,1,5.412,1.371c.974,1.705.518,3.9.051,5.472a25.352,25.352,0,0,1-2.808,5.922,25.321,25.321,0,0,1-6.408-1.376c-1.531-.585-3.551-1.56-4.312-3.37a3.906,3.906,0,0,1,2.205-5.128A4.8,4.8,0,0,1,63.177,115.41Z" transform="translate(-55.95 -81.71)" fill="#ff2100"/>
        <path id="Path_56" data-name="Path 56" d="M266.749,200.892a2.3,2.3,0,0,1,1.151-1.426,1.871,1.871,0,0,1,2.5.946,3.448,3.448,0,0,1-.273,2.607,12.135,12.135,0,0,1-1.658,2.666,12.1,12.1,0,0,1-2.974-1,3.447,3.447,0,0,1-1.869-1.838,1.871,1.871,0,0,1,1.328-2.32A2.3,2.3,0,0,1,266.749,200.892Z" transform="translate(-183.444 -135.795)" fill="#ff2100"/>
        <path id="Path_57" data-name="Path 57" d="M232.009,36.225a4.8,4.8,0,0,1,3.571-1.372,3.906,3.906,0,0,1,3.529,4.325c-.234,1.95-1.909,3.442-3.22,4.425a25.339,25.339,0,0,1-5.783,3.083,25.3,25.3,0,0,1-4.326-4.923c-.881-1.382-1.922-3.369-1.454-5.276a3.906,3.906,0,0,1,4.827-2.8A4.8,4.8,0,0,1,232.009,36.225Z" transform="translate(-159.175 -33.56)" fill="#ff2100"/>
        <path id="Path_58" data-name="Path 58" d="M216.91,179.2a3.186,3.186,0,0,1,2.479-.556,2.6,2.6,0,0,1,1.9,3.185,4.783,4.783,0,0,1-2.545,2.6,16.842,16.842,0,0,1-4.1,1.465,16.829,16.829,0,0,1-2.366-3.655,4.783,4.783,0,0,1-.444-3.609,2.6,2.6,0,0,1,3.444-1.375A3.187,3.187,0,0,1,216.91,179.2Z" transform="translate(-151.416 -122.067)" fill="#ff8080"/>
        <path id="Path_59" data-name="Path 59" d="M144.271,55.545A2.549,2.549,0,0,1,145.7,54.1a2.076,2.076,0,0,1,2.657,1.319,3.826,3.826,0,0,1-.588,2.848,13.465,13.465,0,0,1-2.122,2.761,13.459,13.459,0,0,1-3.174-1.433,3.826,3.826,0,0,1-1.861-2.234,2.075,2.075,0,0,1,1.721-2.416A2.549,2.549,0,0,1,144.271,55.545Z" transform="translate(-107.587 -46.163)" fill="#ff8080"/>
        <path id="Path_60" data-name="Path 60" d="M111.946,241.765a3.186,3.186,0,0,1,1.815-1.779,2.6,2.6,0,0,1,3.293,1.707,4.782,4.782,0,0,1-.8,3.547,16.831,16.831,0,0,1-2.714,3.4,16.823,16.823,0,0,1-3.936-1.861,4.783,4.783,0,0,1-2.278-2.834,2.6,2.6,0,0,1,2.2-2.983A3.187,3.187,0,0,1,111.946,241.765Z" transform="translate(-87.058 -160.82)" fill="#ff8080"/>
      </g>
    </g>
  </g>
</svg>
