<svg xmlns="http://www.w3.org/2000/svg" xmlns:xlink="http://www.w3.org/1999/xlink" width="574" height="295.167" viewBox="0 0 574 295.167">
  <defs>
    <filter id="Path_9" x="463.922" y="155.058" width="48.39" height="52.333" filterUnits="userSpaceOnUse">
      <feOffset dy="10" input="SourceAlpha"/>
      <feGaussianBlur stdDeviation="6" result="blur"/>
      <feFlood flood-opacity="0.251"/>
      <feComposite operator="in" in2="blur"/>
      <feComposite in="SourceGraphic"/>
    </filter>
    <filter id="Path_10" x="223.304" y="109.777" width="48.649" height="52.379" filterUnits="userSpaceOnUse">
      <feOffset dy="10" input="SourceAlpha"/>
      <feGaussianBlur stdDeviation="6" result="blur-2"/>
      <feFlood flood-opacity="0.251"/>
      <feComposite operator="in" in2="blur-2"/>
      <feComposite in="SourceGraphic"/>
    </filter>
    <filter id="Path_11" x="0" y="0" width="538.021" height="295.167" filterUnits="userSpaceOnUse">
      <feOffset dy="10" input="SourceAlpha"/>
      <feGaussianBlur stdDeviation="6" result="blur-3"/>
      <feFlood flood-opacity="0.251"/>
      <feComposite operator="in" in2="blur-3"/>
      <feComposite in="SourceGraphic"/>
    </filter>
    <filter id="Path_12" x="445.053" y="186.102" width="128.947" height="83.035" filterUnits="userSpaceOnUse">
      <feOffset dy="10" input="SourceAlpha"/>
      <feGaussianBlur stdDeviation="6" result="blur-4"/>
      <feFlood flood-opacity="0.251"/>
      <feComposite operator="in" in2="blur-4"/>
      <feComposite in="SourceGraphic"/>
    </filter>
  </defs>
  <g id="Group_8" data-name="Group 8" transform="translate(-289.559 -234.824)">
    <g transform="matrix(1, 0, 0, 1, 289.56, 234.82)" filter="url(#Path_9)">
      <path id="Path_9-2" data-name="Path 9" d="M495.483,321.715c2.382,1.631,11.483-6.841,12.113-9.7a5.19,5.19,0,0,0-5.376-6.423C498.154,306.077,494.594,317.438,495.483,321.715Z" transform="translate(-13.42 -142.53)" fill="#fff"/>
    </g>
    <g transform="matrix(1, 0, 0, 1, 289.56, 234.82)" filter="url(#Path_10)">
      <path id="Path_10-2" data-name="Path 10" d="M410.254,293.684c1.413-3.3-1.764-6.5-5.376-6.423-4.066.487-7.836,9.348-6.737,16.125C400.522,305.016,408.233,298.4,410.254,293.684Z" transform="translate(-156.64 -169.48)" fill="#fff"/>
    </g>
    <g id="Group_7" data-name="Group 7" transform="translate(307.559 242.824)">
      <g transform="matrix(1, 0, 0, 1, -18, -8)" filter="url(#Path_11)">
        <path id="Path_11-2" data-name="Path 11" d="M729.769,417.783a22.634,22.634,0,0,1,3.587-7.261c6.873-9.882,14.469-19.3,20.8-29.515,20.478-33.028,36.509-68.254,50.02-104.627a127.245,127.245,0,0,0,5.116-19.952,20.693,20.693,0,0,0-.556-9.131c-1.2-4.338-5.264-5.754-8.97-3.217A22.988,22.988,0,0,0,793.6,250.2c-4.8,7.33-9.721,14.65-13.758,22.41-21.555,41.467-38.418,80.693-51.692,125.559-5.8,16.873-38.184,47.216-60.238,54.877-4.64,1.537-7.426,0-8.414-4.761a36.693,36.693,0,0,1-.667-9.724c.63-9.489,6.371-32.759,9.262-41.8a9.667,9.667,0,0,1,2.552-3.641c3.177-3.125,6.823-5.833,9.692-9.207,17.656-20.777,33.44-42.88,46.331-66.962a253.188,253.188,0,0,0,17.187-38.636,79.793,79.793,0,0,0,3.128-13.528c.546-3.629.267-7.476-3.681-9.4-3.656-1.779-6.752.089-9.4,2.416a47.111,47.111,0,0,0-7.167,7.389c-6.164,8.489-12.439,16.935-17.963,25.836-16.564,26.706-29.754,55.074-40.489,84.594-.408,1.124-1.87,5.442-3.362,9.934h0c-3,1.008-9.83,12.313-35.775,11.806a29.3,29.3,0,0,1-17.8-5.8c-2.231-1.707-3.928-9.7-9.487-12.508-3.639-1.838-8.251-2.587-10.7-.351-2.777.509-12.226,7.145-21.384,26.513.025-.064.047-.141.072-.2-14.62,14.032-29.144,26.367-39.7,25.527-7.977-.635-12.454-5.66-12.113-13.669a19.75,19.75,0,0,1,.353-3.071c1.277-6.265,2.779-12.392,7.29-17.365,2.078-2.29,1.776-4.805-.173-6.366a4.079,4.079,0,0,0-3.066-.855,3.6,3.6,0,0,0-3.162,1.292c-1.413,1.49-2.517,3.273-3.881,4.815-1.863,2.11-22.3,26.145-30.056,24.552-2.987-.615,1.213-22.18,1.213-22.18,4.138-16.332,8.871-32.509,13.271-48.775q4.247-15.671,8.158-31.434a14.39,14.39,0,0,0,.007-6.11c-.82-4.024-3.772-5.885-7.678-4.627a28.871,28.871,0,0,0-8.281,4.061c-5.255,3.879-10.383,7.967-15.24,12.33-23.351,20.972-44.661,43.927-65.238,67.585-4.63,5.324-9.4,10.527-14.166,15.732-.7.761-3.466.949-1.761-4,2.3-6.668,4.6-13.338,7.184-19.9,8.5-21.614,17.454-43.055,25.55-64.818,3.945-10.6,6.428-21.743,9.422-32.679a18.988,18.988,0,0,0,.44-6.149c-.376-5.939-4.43-8.333-9.615-5.549a28.325,28.325,0,0,0-6.557,4.946c-4,4.027-7.9,8.175-11.549,12.515-22.637,26.955-42.514,55.872-60.781,85.921-.961,1.576-1.932,3.152-2.9,4.731l-1.018-.474c13.736-39.16,28.1-78.077,45.227-115.962,2.142-.408,3.572-.427,4.775-.959,2.394-1.055,2.893-3.281,2.7-5.635-.165-2.021-1-3.733-3.263-4.064-2.461-.363-3.782,1.228-4.8,3.15-.319.605-.566,1.253-.84,1.885Q365.077,315.193,343.623,372.2c-7.231,19.314-13,39.15-22.328,57.713-5.072,10.094-8.521,21.021-12.409,31.684a28.336,28.336,0,0,0-1.327,9.1,4.965,4.965,0,0,0,3.819,4.968c2.441.714,5.66-.151,6.841-2.419,1.976-3.8,5.835-6.789,4.988-11.908-.259-1.566.647-3.343,1.092-5.005,2.471-9.314,4.736-18.689,7.54-27.9a91.815,91.815,0,0,1,6.48-16.229,730.823,730.823,0,0,1,77.16-116.49c3.777-4.682,7.891-9.1,11.957-13.538,1.188-1.3,4.578-4.19,5.213-2.71.847,1.981-.385,5.764-.961,8.568-.9,4.375-2.006,8.721-3.261,13.01-6.349,21.676-15.236,42.406-23.568,63.345q-6.867,17.261-13.336,34.683a60.22,60.22,0,0,0-2.932,10.23c-.4,2.09.22,5.319,2.493,5.984a7.071,7.071,0,0,0,5.245-.813,42.288,42.288,0,0,0,7.374-6.406c6-6.408,11.861-12.948,17.706-19.5,18.919-21.211,38.47-41.81,59.368-61.09,4.926-4.541,10.149-8.778,15.4-12.95C498.1,313,501.6,310.221,503.764,312c1.06.87-.119,6.613-.941,9.667-3.577,13.281-7.372,26.508-11.218,39.713-4.136,14.2-9.232,28.161-11.349,42.86a71.858,71.858,0,0,0-.469,16.416c.452,5.2,4.533,6.552,9.484,5.069,6.5-1.944,16.179-10.2,23.882-17.889a40.614,40.614,0,0,0-.385,13.494c.9,6.09,4.63,10.344,10.253,12.639,13.77,5.62,29.656-7.975,41.87-17.009-.689,2.164-4.195,26.506,7.908,30,13.392,3.864,26.367-15.035,31.207-24.566,6.487-12.785,7.394-24.527,7.923-24.255,22.454,11.535,38.935,1.724,49.2-.613-2.033,8.629-6.4,22.509-8.212,36.37a52.271,52.271,0,0,0,.393,16.369c1.636,8.518,8.422,12.224,16.735,9.657,21.958-7.315,42.774-30.135,47.814-34.29,1.257-1.038,2.4-2.209,3.6-3.315.235.166.472.334.7.507-1.2,6.216-3.8,15.455-4.879,21.691-2.033,11.712-3.95,23.474-3.387,35.392a55.977,55.977,0,0,0,2.789,14.568c1.579,4.818,5.675,7.226,10.762,7.51,2.767.156,4.733-1.29,5.111-3.382.405-2.231-.763-4.173-3.733-4.6-4.484-.645-6.319-3.533-6.646-7.347a129.764,129.764,0,0,1-.682-19.028C722.523,450.749,725.779,434.185,729.769,417.783Zm9.242-33.8a654.311,654.311,0,0,1,46.351-109.1,157.843,157.843,0,0,1,11.191-17.946c1.653-2.268,5.037-7.011,5.26-3.866-.469,4.467-1.416,7.352-4.266,14.756-8.279,21.51-17.647,42.6-27.279,63.531-14.687,31.928-30.622,55.645-32.425,56.855C738.228,386.811,738.561,385.381,739.011,383.987ZM676.6,371.869c11.51-29.967,25.49-58.694,43.377-85.4,4.39-6.554,9.539-12.607,14.42-18.827.9-1.146,2.9-3.5,4.343-2.411.8,1.146-.9,4.279-2.94,9.645a347.938,347.938,0,0,1-21.765,46.163c-14.862,26.59-36.98,53.459-38.458,54.116C675.917,374.056,676.191,372.939,676.6,371.869ZM574.181,441.935c-12.14-6.749,3.471-54.5,19.03-57.061,1.613,2.342,4.8,5.766,10.806,9.3C606.208,410.35,584.181,444.343,574.181,441.935Z" transform="translate(-289.56 -234.82)" fill="#fff"/>
      </g>
    </g>
    <g transform="matrix(1, 0, 0, 1, 289.56, 234.82)" filter="url(#Path_12)">
      <path id="Path_12-2" data-name="Path 12" d="M580.218,322.45c-1.072-1.744-2.011-1.112-3.745-.435a24.322,24.322,0,0,0-4.017,2.29c-16.686,13.615-36.356,28.727-56.265,33.984a35.888,35.888,0,0,1-10.7,1.243c-7.994-.371-12.451-5.66-12.11-13.669a19.749,19.749,0,0,1,.351-3.071c1.277-6.265,2.782-12.392,7.29-17.365,2.078-2.293,1.776-4.805-.171-6.366-2.008-1.606-4.936-1.028-6.771,1.339a4.116,4.116,0,0,0-.566.862c-4,9.274-6.912,18.8-5.4,29.045.9,6.09,4.612,10.386,10.252,12.639,3.133,1.253,6.584,1.695,8.842,2.243,3.254-.366,5.334-.435,7.34-.85,22.271-4.6,58.679-32.647,64.368-36.827C580.248,326.183,581.273,324.164,580.218,322.45Z" transform="translate(-24.65 -124.05)" fill="#fff"/>
    </g>
  </g>
</svg>
