<svg xmlns="http://www.w3.org/2000/svg" xmlns:xlink="http://www.w3.org/1999/xlink" width="574" height="310.131" viewBox="0 0 574 310.131"><defs><filter id="a" x="463.922" y="164.613" width="48.39" height="52.333" filterUnits="userSpaceOnUse"><feOffset dy="10" input="SourceAlpha"/><feGaussianBlur stdDeviation="6" result="b"/><feFlood flood-opacity="0.251"/><feComposite operator="in" in2="b"/><feComposite in="SourceGraphic"/></filter><filter id="c" x="223.304" y="116.543" width="48.649" height="52.379" filterUnits="userSpaceOnUse"><feOffset dy="10" input="SourceAlpha"/><feGaussianBlur stdDeviation="6" result="d"/><feFlood flood-opacity="0.251"/><feComposite operator="in" in2="d"/><feComposite in="SourceGraphic"/></filter><filter id="e" x="0" y="0" width="538.021" height="310.131" filterUnits="userSpaceOnUse"><feOffset dy="10" input="SourceAlpha"/><feGaussianBlur stdDeviation="6" result="f"/><feFlood flood-opacity="0.251"/><feComposite operator="in" in2="f"/><feComposite in="SourceGraphic"/></filter><filter id="g" x="445.053" y="201.065" width="128.947" height="83.035" filterUnits="userSpaceOnUse"><feOffset dy="10" input="SourceAlpha"/><feGaussianBlur stdDeviation="6" result="h"/><feFlood flood-opacity="0.251"/><feComposite operator="in" in2="h"/><feComposite in="SourceGraphic"/></filter></defs><g transform="translate(-289.559 -234.824)"><g transform="matrix(1, 0, 0, 1, 289.56, 234.82)" filter="url(#a)"><path d="M495.483,321.715c2.382,1.631,11.483-6.841,12.113-9.7a5.19,5.19,0,0,0-5.376-6.423C498.154,306.077,494.594,317.438,495.483,321.715Z" transform="translate(-13.42 -132.98)" fill="#fff"/></g><g transform="matrix(1, 0, 0, 1, 289.56, 234.82)" filter="url(#c)"><path d="M410.254,293.684c1.413-3.3-1.764-6.5-5.376-6.423-4.066.487-7.836,9.348-6.737,16.125C400.522,305.016,408.233,298.4,410.254,293.684Z" transform="translate(-156.64 -162.72)" fill="#fff"/></g><g transform="translate(307.559 242.824)"><g transform="matrix(1, 0, 0, 1, -18, -8)" filter="url(#e)"><path d="M729.769,427.885a24.523,24.523,0,0,1,3.587-7.68c6.873-10.452,14.469-20.416,20.8-31.219,20.478-34.935,36.509-72.2,50.02-110.668a140.944,140.944,0,0,0,5.116-21.1,23.108,23.108,0,0,0-.556-9.658c-1.2-4.589-5.264-6.086-8.97-3.4a23.681,23.681,0,0,0-6.171,6.475c-4.8,7.753-9.721,15.5-13.758,23.7-21.555,43.861-38.418,85.352-51.692,132.809-5.8,17.848-38.184,49.942-60.238,58.045-4.64,1.625-7.426-.005-8.414-5.035a41,41,0,0,1-.667-10.285c.63-10.037,6.371-34.65,9.262-44.209a10.248,10.248,0,0,1,2.552-3.852c3.177-3.306,6.823-6.17,9.692-9.739,17.656-21.976,33.44-45.356,46.331-70.828a275.811,275.811,0,0,0,17.187-40.866,88.537,88.537,0,0,0,3.128-14.309c.546-3.839.267-7.907-3.681-9.938-3.656-1.881-6.752.094-9.4,2.556a48.69,48.69,0,0,0-7.167,7.816c-6.164,8.979-12.439,17.913-17.963,27.328-16.564,28.248-29.754,58.254-40.489,89.478-.408,1.189-1.87,5.757-3.362,10.507h0c-3,1.066-9.83,13.024-35.775,12.488a28.244,28.244,0,0,1-17.8-6.138c-2.231-1.806-3.928-10.262-9.487-13.23-3.639-1.944-8.251-2.736-10.7-.371-2.777.538-12.226,7.557-21.384,28.044.025-.068.047-.149.072-.214-14.62,14.843-29.144,27.89-39.7,27-7.977-.672-12.454-5.987-12.113-14.458a22.046,22.046,0,0,1,.353-3.248c1.277-6.627,2.779-13.107,7.29-18.368,2.078-2.422,1.776-5.082-.173-6.734a3.921,3.921,0,0,0-3.066-.9,3.5,3.5,0,0,0-3.162,1.367c-1.413,1.576-2.517,3.462-3.881,5.093-1.863,2.232-22.3,27.655-30.056,25.969-2.987-.651,1.213-23.46,1.213-23.46,4.138-17.275,8.871-34.386,13.271-51.591q4.247-16.576,8.158-33.249a16.081,16.081,0,0,0,.007-6.462c-.82-4.257-3.772-6.224-7.678-4.894a28.256,28.256,0,0,0-8.281,4.3c-5.255,4.1-10.383,8.427-15.24,13.042-23.351,22.183-44.661,46.464-65.238,71.487-4.63,5.631-9.4,11.134-14.166,16.64-.7.8-3.466,1-1.761-4.231,2.3-7.053,4.6-14.108,7.184-21.049,8.5-22.862,17.454-45.541,25.55-68.56,3.945-11.208,6.428-23,9.422-34.566a21.211,21.211,0,0,0,.44-6.5c-.376-6.282-4.43-8.814-9.615-5.869a28.531,28.531,0,0,0-6.557,5.231c-4,4.259-7.9,8.647-11.549,13.238-22.637,28.512-42.514,59.1-60.781,90.882-.961,1.667-1.932,3.334-2.9,5l-1.018-.5c13.736-41.42,28.1-82.585,45.227-122.657,2.142-.431,3.572-.452,4.775-1.014,2.394-1.116,2.893-3.47,2.7-5.961-.165-2.138-1-3.948-3.263-4.3-2.461-.384-3.782,1.3-4.8,3.332-.319.64-.566,1.325-.84,1.994q-24.517,58.987-45.971,119.289c-7.231,20.429-13,41.41-22.328,61.045-5.072,10.677-8.521,22.235-12.409,33.513a31.576,31.576,0,0,0-1.327,9.629,5.214,5.214,0,0,0,3.819,5.255c2.441.755,5.66-.159,6.841-2.558,1.976-4.019,5.835-7.181,4.988-12.6-.259-1.657.647-3.536,1.092-5.294,2.471-9.851,4.736-19.768,7.54-29.515a100.464,100.464,0,0,1,6.48-17.166,778.171,778.171,0,0,1,77.16-123.216c3.777-4.952,7.891-9.627,11.957-14.32,1.188-1.372,4.578-4.432,5.213-2.867.847,2.1-.385,6.1-.961,9.062-.9,4.628-2.006,9.224-3.261,13.761-6.349,22.928-15.236,44.854-23.568,67q-6.867,18.258-13.336,36.686a66.55,66.55,0,0,0-2.932,10.821c-.4,2.211.22,5.626,2.493,6.329a6.74,6.74,0,0,0,5.245-.86,43.082,43.082,0,0,0,7.374-6.776c6-6.778,11.861-13.7,17.706-20.625,18.919-22.436,38.47-44.224,59.368-64.617,4.926-4.8,10.149-9.284,15.4-13.7,1.922-1.617,5.428-4.557,7.589-2.681,1.06.92-.119,7-.941,10.225-3.577,14.048-7.372,28.039-11.218,42.006-4.136,15.02-9.232,29.787-11.349,45.335a80.356,80.356,0,0,0-.469,17.364c.452,5.5,4.533,6.93,9.484,5.362,6.5-2.057,16.179-10.787,23.882-18.922a45.4,45.4,0,0,0-.385,14.273A16.446,16.446,0,0,0,523.019,445c13.77,5.945,29.656-8.435,41.87-17.991-.689,2.289-4.195,28.036,7.908,31.731,13.392,4.087,26.367-15.9,31.207-25.985,6.487-13.523,7.394-25.943,7.923-25.656,22.454,12.2,38.935,1.824,49.2-.648-2.033,9.128-6.4,23.808-8.212,38.47a58.438,58.438,0,0,0,.393,17.314c1.636,9.01,8.422,12.93,16.735,10.215,21.958-7.737,42.774-31.875,47.814-36.27,1.257-1.1,2.4-2.336,3.6-3.507.235.175.472.353.7.536-1.2,6.575-3.8,16.348-4.879,22.943-2.033,12.389-3.95,24.83-3.387,37.435A62.249,62.249,0,0,0,716.677,509c1.579,5.1,5.675,7.643,10.762,7.944,2.767.165,4.733-1.364,5.111-3.577.405-2.36-.763-4.414-3.733-4.863-4.484-.682-6.319-3.737-6.646-7.771a145.131,145.131,0,0,1-.682-20.126C722.523,462.754,725.779,445.233,729.769,427.885Zm9.242-35.747a714.178,714.178,0,0,1,46.351-115.395,168.769,168.769,0,0,1,11.191-18.982c1.653-2.4,5.037-7.416,5.26-4.089-.469,4.724-1.416,7.777-4.266,15.608-8.279,22.752-17.647,45.055-27.279,67.2-14.687,33.772-30.622,58.858-32.425,60.138C738.228,395.124,738.561,393.611,739.011,392.137ZM676.6,379.32c11.51-31.7,25.49-62.082,43.377-90.333,4.39-6.933,9.539-13.335,14.42-19.914.9-1.212,2.9-3.705,4.343-2.55.8,1.212-.9,4.526-2.94,10.2a378.017,378.017,0,0,1-21.765,48.829c-14.862,28.125-36.98,56.545-38.458,57.24C675.917,381.633,676.191,380.452,676.6,379.32ZM574.181,453.431c-12.14-7.139,3.471-57.643,19.03-60.355,1.613,2.477,4.8,6.1,10.806,9.833C606.208,420.022,584.181,455.978,574.181,453.431Z" transform="translate(-289.56 -234.82)" fill="#fff"/></g></g><g transform="matrix(1, 0, 0, 1, 289.56, 234.82)" filter="url(#g)"><path d="M580.218,322.45c-1.072-1.744-2.011-1.112-3.745-.435a24.322,24.322,0,0,0-4.017,2.29c-16.686,13.615-36.356,28.727-56.265,33.984a35.888,35.888,0,0,1-10.7,1.243c-7.994-.371-12.451-5.66-12.11-13.669a19.749,19.749,0,0,1,.351-3.071c1.277-6.265,2.782-12.392,7.29-17.365,2.078-2.293,1.776-4.805-.171-6.366-2.008-1.606-4.936-1.028-6.771,1.339a4.116,4.116,0,0,0-.566.862c-4,9.274-6.912,18.8-5.4,29.045.9,6.09,4.612,10.386,10.252,12.639,3.133,1.253,6.584,1.695,8.842,2.243,3.254-.366,5.334-.435,7.34-.85,22.271-4.6,58.679-32.647,64.368-36.827C580.248,326.183,581.273,324.164,580.218,322.45Z" transform="translate(-24.65 -109.09)" fill="#fff"/></g></g></svg>